<?xml version="1.0" encoding="UTF-8" standalone="no"?>
<!-- Created with Inkscape (http://www.inkscape.org/) -->

<svg
   width="128mm"
   height="64mm"
   viewBox="0 0 128 64"
   version="1.1"
   id="svg17624"
   sodipodi:docname="died.svg"
   inkscape:version="1.2.2 (b0a8486541, 2022-12-01)"
   xmlns:inkscape="http://www.inkscape.org/namespaces/inkscape"
   xmlns:sodipodi="http://sodipodi.sourceforge.net/DTD/sodipodi-0.dtd"
   xmlns:xlink="http://www.w3.org/1999/xlink"
   xmlns="http://www.w3.org/2000/svg"
   xmlns:svg="http://www.w3.org/2000/svg">
  <sodipodi:namedview
     id="namedview19549"
     pagecolor="#ffffff"
     bordercolor="#000000"
     borderopacity="0.25"
     inkscape:showpageshadow="2"
     inkscape:pageopacity="0.0"
     inkscape:pagecheckerboard="0"
     inkscape:deskcolor="#d1d1d1"
     inkscape:document-units="mm"
     showgrid="false"
     inkscape:zoom="0.68988947"
     inkscape:cx="478.3375"
     inkscape:cy="333.38674"
     inkscape:window-width="1440"
     inkscape:window-height="828"
     inkscape:window-x="0"
     inkscape:window-y="0"
     inkscape:window-maximized="1"
     inkscape:current-layer="layer1" />
  <defs
     id="defs17621">
    <rect
       x="9.2627727"
       y="50.291781"
       width="466.47872"
       height="114.26466"
       id="rect20075" />
    <linearGradient
       id="linearGradient19373">
      <stop
         style="stop-color:#ffff00;stop-opacity:1;"
         offset="0"
         id="stop19369" />
      <stop
         style="stop-color:#00ffff;stop-opacity:1"
         offset="1"
         id="stop19371" />
    </linearGradient>
    <linearGradient
       id="linearGradient19342">
      <stop
         style="stop-color:#00ffff;stop-opacity:1;"
         offset="0"
         id="stop19338" />
      <stop
         style="stop-color:#ffff00;stop-opacity:1"
         offset="1"
         id="stop19340" />
    </linearGradient>
    <linearGradient
       xlink:href="#linearGradient19342"
       id="linearGradient19344"
       x1="65.57267"
       y1="25.772766"
       x2="64.639198"
       y2="25.538033"
       gradientUnits="userSpaceOnUse" />
    <linearGradient
       xlink:href="#linearGradient19373"
       id="linearGradient19375"
       x1="56.021076"
       y1="27.207745"
       x2="-10.414796"
       y2="25.957891"
       gradientUnits="userSpaceOnUse" />
  </defs>
  <g
     id="layer1"
     transform="matrix(1.8123518,0,0,1.8123518,-0.43185251,8.5416504)">
    <g
       aria-label="THE PYTHONS BIT YOU BACK 
       YOU HAVE DIED"
       transform="matrix(0.39702981,0,0,0.96917052,1.2394061,-53.491153)"
       id="text20073"
       style="font-family:'04b_19';-inkscape-font-specification:'04b_19';white-space:pre;shape-inside:url(#rect20075);display:inline;fill:#00ff00;stroke:#000000;stroke-width:0;stroke-linecap:square">
      <path
         d="m 9.2636719,52.648158 v 2.571429 h 1.7142861 v 6.857143 h 2.571428 v -6.857143 h 1.714286 v -2.571429 z"
         id="path20152" />
      <path
         d="M 19.549383,52.648158 V 56.07673 H 18.69224 v -3.428572 h -2.571429 v 9.428572 h 2.571429 v -3.428572 h 0.857143 v 3.428572 h 2.571428 v -9.428572 z"
         id="path20154" />
      <path
         d="M 28.977951,62.07673 V 59.505301 H 25.54938 v -0.857143 h 3.428571 V 56.07673 H 25.54938 v -0.857143 h 3.428571 v -2.571429 h -6 v 9.428572 z"
         id="path20156" />
      <path
         d="m 34.977951,52.648158 v 9.428572 h 2.571429 v -1.714286 h 3.428571 v -7.714286 z m 3.428571,5.142858 H 37.54938 v -2.571429 h 0.857142 z"
         id="path20158" />
      <path
         d="m 45.263662,52.648158 v 3.428572 h -0.857143 v -3.428572 h -2.571428 v 6 h 1.714285 v 3.428572 h 2.571429 v -3.428572 h 1.714286 v -6 z"
         id="path20160" />
      <path
         d="m 48.69223,52.648158 v 2.571429 h 1.714286 v 6.857143 h 2.571429 v -6.857143 h 1.714285 v -2.571429 z"
         id="path20162" />
      <path
         d="M 58.977941,52.648158 V 56.07673 H 58.120798 V 52.648158 H 55.54937 v 9.428572 h 2.571428 v -3.428572 h 0.857143 v 3.428572 h 2.571429 v -9.428572 z"
         id="path20164" />
      <path
         d="m 62.406509,52.648158 v 9.428572 h 6 v -9.428572 z m 3.428572,6.857143 h -0.857143 v -4.285714 h 0.857143 z"
         id="path20166" />
      <path
         d="m 71.835078,62.07673 v -6.857143 h 0.857142 v 6.857143 h 2.571429 v -9.428572 h -6 v 9.428572 z"
         id="path20168" />
      <path
         d="m 76.120789,52.648158 v 6 h 3.428571 v 0.857143 h -3.428571 v 2.571429 h 6 v -6 h -3.428572 v -0.857143 h 3.428572 v -2.571429 z"
         id="path20170" />
      <path
         d="m 88.120789,52.648158 v 9.428572 h 6 v -4.285714 h -0.857143 v -0.857143 h 0.857143 v -4.285715 z m 3.428571,6.857143 H 90.692217 V 58.648158 H 91.54936 Z M 90.692217,56.07673 v -0.857143 h 0.857143 v 0.857143 z"
         id="path20172" />
      <path
         d="M 97.549357,62.07673 V 52.648158 H 94.977928 V 62.07673 Z"
         id="path20174" />
      <path
         d="m 98.406509,52.648158 v 2.571429 h 1.714291 v 6.857143 h 2.57142 v -6.857143 h 1.71429 v -2.571429 z"
         id="path20176" />
      <path
         d="m 113.83508,52.648158 v 3.428572 h -0.85714 v -3.428572 h -2.57143 v 6 h 1.71429 v 3.428572 h 2.57142 v -3.428572 h 1.71429 v -6 z"
         id="path20178" />
      <path
         d="m 117.26365,52.648158 v 9.428572 h 6 v -9.428572 z m 3.42857,6.857143 h -0.85714 v -4.285714 h 0.85714 z"
         id="path20180" />
      <path
         d="m 127.54936,52.648158 v 6.857143 h -0.85714 v -6.857143 h -2.57143 v 9.428572 h 6 v -9.428572 z"
         id="path20182" />
      <path
         d="m 136.12079,52.648158 v 9.428572 h 6 v -4.285714 h -0.85714 v -0.857143 h 0.85714 v -4.285715 z m 3.42857,6.857143 h -0.85714 v -0.857143 h 0.85714 z m -0.85714,-3.428571 v -0.857143 h 0.85714 v 0.857143 z"
         id="path20184" />
      <path
         d="m 142.97794,52.648158 v 9.428572 h 2.57142 v -3.428572 h 0.85715 v 3.428572 h 2.57143 v -9.428572 z m 3.42857,3.428572 h -0.85715 v -0.857143 h 0.85715 z"
         id="path20186" />
      <path
         d="m 149.83507,52.648158 v 9.428572 h 6 v -4.285714 h -2.57143 v 1.714285 h -0.85714 v -4.285714 h 0.85714 v 1.714286 h 2.57143 v -4.285715 z"
         id="path20188" />
      <path
         d="m 160.12077,52.648158 v 2.571429 h -0.85714 v -2.571429 h -2.57143 v 9.428572 h 2.57143 v -2.571429 h 0.85714 v 2.571429 h 2.57143 v -4.285714 h -0.85714 v -0.857143 h 0.85714 v -4.285715 z"
         id="path20190" />
      <path
         d="m 48.692266,67.648158 v 3.428572 h -0.857143 v -3.428572 h -2.571428 v 6 h 1.714285 v 3.428572 h 2.571429 v -3.428572 h 1.714286 v -6 z"
         id="path20192" />
      <path
         d="m 52.120834,67.648158 v 9.428572 h 6 v -9.428572 z m 3.428572,6.857143 h -0.857143 v -4.285714 h 0.857143 z"
         id="path20194" />
      <path
         d="m 62.406545,67.648158 v 6.857143 h -0.857142 v -6.857143 h -2.571429 v 9.428572 h 6 v -9.428572 z"
         id="path20196" />
      <path
         d="m 74.406545,67.648158 v 3.428572 h -0.857142 v -3.428572 h -2.571429 v 9.428572 h 2.571429 v -3.428572 h 0.857142 v 3.428572 h 2.571429 v -9.428572 z"
         id="path20198" />
      <path
         d="m 77.835114,67.648158 v 9.428572 h 2.571428 v -3.428572 h 0.857143 v 3.428572 h 2.571429 v -9.428572 z m 3.428571,3.428572 h -0.857143 v -0.857143 h 0.857143 z"
         id="path20200" />
      <path
         d="m 88.120825,67.648158 v 6.857143 h -0.857143 v -6.857143 h -2.571429 v 8.571429 h 0.857143 v 0.857143 h 4.285714 v -0.857143 h 0.857143 v -8.571429 z"
         id="path20202" />
      <path
         d="m 97.549393,77.07673 v -2.571429 h -3.428572 v -0.857143 h 3.428572 V 71.07673 h -3.428572 v -0.857143 h 3.428572 v -2.571429 h -6 v 9.428572 z"
         id="path20204" />
      <path
         d="m 108.69225,77.07673 v -0.857143 h 0.85714 v -7.714286 h -0.85714 v -0.857143 h -5.14286 v 9.428572 z m -2.57143,-6.857143 h 0.85714 v 4.285714 h -0.85714 z"
         id="path20206" />
      <path
         d="m 112.97796,77.07673 v -9.428572 h -2.57143 v 9.428572 z"
         id="path20208" />
      <path
         d="m 119.83511,77.07673 v -2.571429 h -3.42857 v -0.857143 h 3.42857 V 71.07673 h -3.42857 v -0.857143 h 3.42857 v -2.571429 h -6 v 9.428572 z"
         id="path20210" />
      <path
         d="m 125.83511,77.07673 v -0.857143 h 0.85714 v -7.714286 h -0.85714 v -0.857143 h -5.14286 v 9.428572 z m -2.57143,-6.857143 h 0.85714 v 4.285714 h -0.85714 z"
         id="path20212" />
    </g>
    <path
       style="fill:url(#linearGradient19375);fill-opacity:1;stroke:#000000;stroke-width:0.8;stroke-linecap:square;stroke-dasharray:none"
       d="m 3.8682805,24.75834 3.4763866,-0.232188 3.7631189,1.169191 4.976548,-0.350239 4.472551,-0.844747 3.576267,0.800879 6.519152,-0.430592 4.315185,-1.106863 c 0,0 0.900303,0.344522 2.649789,0.739396 1.749486,0.394875 5.426014,0.536756 7.260841,-0.142831 1.834825,-0.679587 2.520143,-1.477802 4.378119,-1.373339 1.857978,0.104462 4.657796,1.602998 5.259964,1.824075 0.60217,0.221077 4.477406,0.238899 4.477406,0.238899 l 3.047278,-1.408582 4.021563,-0.629598 1.614681,1.456144 c 0,0 1.11085,0.344481 0.552939,1.780101 -0.557911,1.43562 1.180576,1.4734 -0.880277,1.897879 -2.06085,0.424476 -0.698195,0.553585 -3.109933,0.202009 -2.411741,-0.351578 -5.125125,-1.080704 -6.481053,-1.55453 -1.355929,-0.473827 -4.029316,-0.860931 -6.398215,-0.706469 -2.3689,0.154461 -0.680273,-1.157677 -3.603805,0.265696 -2.92353,1.423372 -0.319133,1.677033 -4.72331,1.932978 -4.404178,0.255942 -4.127082,0.700892 -6.157132,-0.19104 -2.03005,-0.891929 -1.783953,-1.183992 -3.568208,-1.430684 -1.784252,-0.246692 -4.830164,-0.175707 -6.591892,0.201549 -1.761726,0.377256 -3.209581,0.665848 -5.169878,0.665848 -1.960297,0 -5.124805,-0.255566 -5.622013,-0.363138 C 15.427145,27.060572 11.394848,26.900677 9.0267016,27.042059 6.6585559,27.183439 6.8370171,27.786451 5.5637339,27.563982 4.2904507,27.341515 3.1698673,26.717548 3.1698673,26.717548 Z"
       id="path18794" />
    <path
       style="fill:#ffffff;stroke:#000000;stroke-width:0.179185;stroke-linecap:square;stroke-dasharray:none"
       id="path19328"
       d="m 66.225362,26.075861 a 0.99621284,1.0929632 0 0 1 -1.00713,0.375181 0.99621284,1.0929632 0 0 1 -0.741861,-0.836186 0.99621284,1.0929632 0 0 1 0.369035,-1.094409 l 0.605545,0.867872 z" />
    <path
       style="fill:url(#linearGradient19344);fill-opacity:1;stroke:#000000;stroke-width:0;stroke-linecap:square;stroke-dasharray:none"
       id="path19332"
       d="m 65.702692,25.968262 a 0.49341974,0.54224622 0 0 1 -0.498827,0.186137 0.49341974,0.54224622 0 0 1 -0.36744,-0.414853 0.49341974,0.54224622 0 0 1 0.182781,-0.542964 l 0.299924,0.430573 z" />
    <path
       style="fill:#000000;stroke:#000000;stroke-width:0;stroke-linecap:square;stroke-dasharray:none"
       id="path19336"
       d="M 65.518629,25.958462 A 0.31499603,0.31570399 0 0 1 65.200181,26.066834 0.31499603,0.31570399 0 0 1 64.96561,25.8253 0.31499603,0.31570399 0 0 1 65.082296,25.509179 l 0.19147,0.250686 z" />
  </g>
</svg>
