<?xml version="1.0" encoding="UTF-8" standalone="no"?>
<!-- Created with Inkscape (http://www.inkscape.org/) -->

<svg
   width="210mm"
   height="297mm"
   viewBox="0 0 210 297"
   version="1.1"
   id="svg803"
   inkscape:version="1.2.2 (b0a8486541, 2022-12-01)"
   sodipodi:docname="drawing-1.svg"
   xmlns:inkscape="http://www.inkscape.org/namespaces/inkscape"
   xmlns:sodipodi="http://sodipodi.sourceforge.net/DTD/sodipodi-0.dtd"
   xmlns:xlink="http://www.w3.org/1999/xlink"
   xmlns="http://www.w3.org/2000/svg"
   xmlns:svg="http://www.w3.org/2000/svg">
  <sodipodi:namedview
     id="namedview805"
     pagecolor="#ffffff"
     bordercolor="#000000"
     borderopacity="0.25"
     inkscape:showpageshadow="2"
     inkscape:pageopacity="0.0"
     inkscape:pagecheckerboard="0"
     inkscape:deskcolor="#d1d1d1"
     inkscape:document-units="mm"
     showgrid="false"
     showguides="false"
     inkscape:zoom="2.3786088"
     inkscape:cx="506.80885"
     inkscape:cy="475.06761"
     inkscape:window-width="1440"
     inkscape:window-height="828"
     inkscape:window-x="0"
     inkscape:window-y="0"
     inkscape:window-maximized="1"
     inkscape:current-layer="layer1" />
  <defs
     id="defs800">
    <linearGradient
       inkscape:collect="always"
       id="linearGradient1139">
      <stop
         style="stop-color:#ff5599;stop-opacity:1;"
         offset="0"
         id="stop1135" />
      <stop
         style="stop-color:#5599ff;stop-opacity:1"
         offset="1"
         id="stop1137" />
    </linearGradient>
    <linearGradient
       inkscape:collect="always"
       id="linearGradient961">
      <stop
         style="stop-color:#5599ff;stop-opacity:1"
         offset="0"
         id="stop957" />
      <stop
         style="stop-color:#ff5599;stop-opacity:1"
         offset="1"
         id="stop959" />
    </linearGradient>
    <linearGradient
       inkscape:collect="always"
       xlink:href="#linearGradient961"
       id="linearGradient963"
       x1="95.709656"
       y1="112.87445"
       x2="81.623856"
       y2="143.07458"
       gradientUnits="userSpaceOnUse" />
    <linearGradient
       inkscape:collect="always"
       xlink:href="#linearGradient1139"
       id="linearGradient1141"
       x1="106.11886"
       y1="116.68427"
       x2="103.71453"
       y2="116.17604"
       gradientUnits="userSpaceOnUse" />
  </defs>
  <g
     inkscape:label="Layer 1"
     inkscape:groupmode="layer"
     id="layer1">
    <path
       style="fill:#000000;stroke-width:0.264583"
       d="m 62.563385,115.51551 -0.405456,25.41566 c 0,0 15.30981,-13.49627 21.117989,-7.78129 5.808181,5.71498 37.683022,-4.49877 37.683022,-4.49877 0,0 -6.61434,16.06929 0.20357,-0.81821 6.81791,-16.88749 -16.90897,-25.59508 -16.90897,-25.59508 0,0 -14.717948,-1.21638 -20.591558,5.74951 -5.873613,6.96589 -8.830374,12.83728 -8.830374,12.83728 0,0 -15.738739,-1.82165 -11.499471,-5.03892 4.239268,-3.21727 -0.768752,-0.27018 -0.768752,-0.27018 z"
       id="path809" />
    <path
       style="fill:url(#linearGradient963);stroke-width:0.264583;fill-opacity:1"
       d="m 63.260848,119.16743 5.126201,2.68464 c 0,0 3.921789,0.4701 4.315881,0.52572 0.394089,0.0556 3.569406,-0.94028 3.569406,-0.94028 0,0 3.994692,-8.32798 7.698682,-11.01466 3.703992,-2.68667 7.20068,-3.43723 7.20068,-3.43723 0,0 1.723819,-1.91204 3.323503,-1.85037 1.599684,0.0617 3.899477,-0.27251 4.845981,-0.21588 0.946508,0.0566 2.603628,0.24831 5.400868,1.03714 2.79724,0.78884 10.52041,5.52005 10.52041,5.52005 l 4.3578,6.60195 0.79703,6.16999 -0.69603,3.01426 c 0,0 -6.25277,1.52962 -8.25624,1.83103 -2.00346,0.30142 -9.68789,1.571 -11.03781,1.96479 -1.349913,0.39379 -9.433005,1.09295 -9.433005,1.09295 0,0 3.318706,2.82272 -3.068606,-0.865 -6.387314,-3.68771 -8.768037,-3.18319 -8.768037,-3.18319 0,0 -5.643952,0.36367 -6.874063,1.28421 -1.230114,0.92055 -2.831068,3.7776 -3.810855,4.40663 -0.979783,0.62902 -5.107347,3.86561 -5.107347,3.86561 z"
       id="path955" />
    <path
       style="fill:#000000;stroke-width:0.264583"
       id="path1019"
       sodipodi:type="arc"
       sodipodi:cx="105.06371"
       sodipodi:cy="116.84852"
       sodipodi:rx="5.05651"
       sodipodi:ry="4.5992827"
       sodipodi:start="0"
       sodipodi:end="4.2168191"
       sodipodi:open="true"
       sodipodi:arc-type="arc"
       d="m 110.12022,116.84852 a 5.05651,4.5992827 0 0 1 -4.22502,4.53667 5.05651,4.5992827 0 0 1 -5.61454,-3.04465 5.05651,4.5992827 0 0 1 2.37852,-5.538" />
    <path
       style="fill:#ffffff;stroke-width:0.264583"
       id="path1075"
       sodipodi:type="arc"
       sodipodi:cx="105.76359"
       sodipodi:cy="117.08183"
       sodipodi:rx="3.2569728"
       sodipodi:ry="3.1642127"
       sodipodi:start="0"
       sodipodi:end="4.2168191"
       sodipodi:open="true"
       sodipodi:arc-type="arc"
       d="m 109.02056,117.08183 a 3.2569728,3.1642127 0 0 1 -2.7214,3.12114 3.2569728,3.1642127 0 0 1 -3.61641,-2.09466 3.2569728,3.1642127 0 0 1 1.53204,-3.81003" />
    <path
       style="fill:url(#linearGradient1141);stroke-width:0.264583;fill-opacity:1"
       id="path1131"
       sodipodi:type="arc"
       sodipodi:cx="106.16991"
       sodipodi:cy="117.42557"
       sodipodi:rx="2.0261307"
       sodipodi:ry="2.0673208"
       sodipodi:start="0"
       sodipodi:end="4.2168191"
       sodipodi:open="true"
       sodipodi:arc-type="arc"
       d="m 108.19604,117.42557 a 2.0261307,2.0673208 0 0 1 -1.69296,2.03918 2.0261307,2.0673208 0 0 1 -2.24973,-1.36854 2.0261307,2.0673208 0 0 1 0.95306,-2.48926" />
    <path
       style="fill:#000000;stroke-width:0.264583"
       id="path1133"
       sodipodi:type="arc"
       sodipodi:cx="106.15449"
       sodipodi:cy="117.94172"
       sodipodi:rx="0.55770338"
       sodipodi:ry="0.70441914"
       sodipodi:start="0"
       sodipodi:end="4.2168191"
       sodipodi:open="true"
       sodipodi:arc-type="arc"
       d="m 106.71219,117.94172 a 0.55770338,0.70441914 0 0 1 -0.46599,0.69483 0.55770338,0.70441914 0 0 1 -0.61925,-0.46632 0.55770338,0.70441914 0 0 1 0.26233,-0.84819" />
  </g>
</svg>
