<?xml version="1.0" encoding="UTF-8" standalone="no"?>
<!-- Created with Inkscape (http://www.inkscape.org/) -->

<svg
   width="16.218443mm"
   height="176.2541mm"
   viewBox="0 0 16.218442 176.2541"
   version="1.1"
   id="svg3940"
   inkscape:version="1.2.2 (b0a8486541, 2022-12-01)"
   sodipodi:docname="pipe2.svg"
   xmlns:inkscape="http://www.inkscape.org/namespaces/inkscape"
   xmlns:sodipodi="http://sodipodi.sourceforge.net/DTD/sodipodi-0.dtd"
   xmlns:xlink="http://www.w3.org/1999/xlink"
   xmlns="http://www.w3.org/2000/svg"
   xmlns:svg="http://www.w3.org/2000/svg">
  <sodipodi:namedview
     id="namedview3942"
     pagecolor="#ffffff"
     bordercolor="#000000"
     borderopacity="0.25"
     inkscape:showpageshadow="2"
     inkscape:pageopacity="0.0"
     inkscape:pagecheckerboard="0"
     inkscape:deskcolor="#d1d1d1"
     inkscape:document-units="mm"
     showgrid="false"
     inkscape:zoom="5.12"
     inkscape:cx="37.5"
     inkscape:cy="588.37891"
     inkscape:window-width="1440"
     inkscape:window-height="828"
     inkscape:window-x="0"
     inkscape:window-y="0"
     inkscape:window-maximized="1"
     inkscape:current-layer="layer1" />
  <defs
     id="defs3937">
    <linearGradient
       inkscape:collect="always"
       id="linearGradient4645">
      <stop
         style="stop-color:#ffff00;stop-opacity:1;"
         offset="0"
         id="stop4641" />
      <stop
         style="stop-color:#00ff00;stop-opacity:1"
         offset="1"
         id="stop4643" />
    </linearGradient>
    <linearGradient
       inkscape:collect="always"
       id="linearGradient4566">
      <stop
         style="stop-color:#00ff00;stop-opacity:1"
         offset="0"
         id="stop4562" />
      <stop
         style="stop-color:#00ff00;stop-opacity:1"
         offset="1"
         id="stop4564" />
    </linearGradient>
    <linearGradient
       inkscape:collect="always"
       xlink:href="#linearGradient4566"
       id="linearGradient4560"
       x1="-8.6856079"
       y1="8.3811436"
       x2="-8.7473202"
       y2="8.4251289"
       gradientUnits="userSpaceOnUse" />
    <linearGradient
       inkscape:collect="always"
       xlink:href="#linearGradient4645"
       id="linearGradient4647"
       x1="14.988638"
       y1="113.49268"
       x2="13.586208"
       y2="182.17795"
       gradientUnits="userSpaceOnUse" />
  </defs>
  <g
     inkscape:label="Layer 1"
     inkscape:groupmode="layer"
     id="layer1"
     transform="translate(-1.1708994,-2.9708754)">
    <path
       style="fill:url(#linearGradient4647);fill-opacity:1;stroke:#000000;stroke-width:0.264583"
       d="m 3.1800048,175.23132 1.7398881,1.7377 c 0,0 1.0949067,1.27471 2.0006664,1.59087 0.9057598,0.31615 3.2629637,0.5328 3.7618627,0.5328 0.498898,0 2.579283,-0.70728 2.579283,-0.70728 0,0 1.935806,-1.00578 2.173104,-1.15447 0.237298,-0.14869 1.434699,-1.4094 1.434699,-1.4094 0,0 0.387543,-1.58361 0.387543,-1.9846 0,-0.40099 -0.04876,-1.87561 -0.353338,-2.46452 -0.304578,-0.58891 -1.523041,-2.8584 -1.56846,-3.13986 -0.04542,-0.28147 -1.916785,-2.32205 -2.262478,-3.40415 -0.345693,-1.0821 -2.459661,-13.01134 -2.459661,-13.01134 0,0 -0.713013,-1.80224 -0.338836,-4.32051 0.374178,-2.51828 -0.190583,-2.86653 0.931949,-5.95384 1.122533,-3.08731 1.064033,-3.189 1.859468,-5.28495 0.795435,-2.09595 0.982558,-2.67859 1.356735,-3.95563 0.374178,-1.27705 1.027116,-3.00397 1.027116,-5.99863 0,-2.99465 -0.186393,-5.49462 -0.368971,-7.1374 -0.182578,-1.64279 -1.965082,-4.999 -2.667954,-6.72017 -0.702873,-1.72116 -1.279715,-2.09448 -1.873513,-3.81144 -0.5937992,-1.71696 -1.1598385,-3.60284 -1.1598385,-3.60284 L 9.479437,95.339716 c 0,0 0.775109,-2.082461 1.686459,-3.36378 0.911349,-1.281319 1.706773,-0.844171 2.457605,-3.201238 0.750833,-2.357068 1.502636,1.988375 0.937921,-3.688207 -0.564714,-5.676586 -0.378653,-6.837313 -0.564714,-8.029946 -0.186061,-1.192633 -0.60974,-4.85046 -0.983917,-6.29648 -0.374177,-1.446022 -0.376164,-1.647333 -0.935443,-4.062391 -0.559279,-2.415058 0.388839,-0.591315 -0.746368,-3.446209 -1.135207,-2.854896 -1.131553,-1.724593 -1.5093846,-3.90861 -0.3778313,-2.184019 -0.9390972,-2.401773 -1.126186,-5.956458 -0.1870887,-3.554685 0.090827,-4.308957 0.5577832,-6.373524 0.4669565,-2.064568 -1.3439462,-1.633427 1.1858614,-3.220271 2.529808,-1.586846 1.9847,0.04439 2.529808,-1.765109 0.545108,-1.809499 0.915791,-2.554364 0.915791,-2.554364 l 1.74425,-7.304596 -1.167157,-7.397178 -0.78139,-4.74729 -0.407897,-3.502511 -0.670706,-1.713333 1.760534,-4.685581 0.900067,-3.1251597 -1.877315,-2.6336291 c 0,0 -1.417862,-1.7797347 -2.708652,-1.1108391 C 9.3855957,3.9219079 7.5553151,4.1557572 6.8864252,5.6347957 6.2175352,7.1138343 5.8522761,6.2887153 5.4746045,8.5979941 5.096933,10.907273 4.7246854,10.418985 4.7246854,12.12702 c 0,1.708035 -0.8423899,0.785084 0.7492452,2.957935 1.5916355,2.17285 1.4547104,1.342529 1.9484446,2.753694 0.4937342,1.411164 0.6785046,0.456434 0.6785046,5.034471 0,4.578035 0,4.670925 0,6.669429 0,1.998506 0.1907199,1.529038 -0.7483546,4.617747 -0.9390745,3.088711 -0.7519858,2.434574 -1.3132519,4.499464 -0.561266,2.064888 -0.3645398,0.604322 -0.9292085,3.226964 -0.564669,2.622645 -0.4198305,1.256054 -0.794008,3.788683 -0.3741771,2.532628 -0.56476,3.062652 -0.7518487,4.693501 -0.1870887,1.630847 0.2827684,12.135435 0.2827684,12.135435 0,0 -0.4388318,-2.575478 0.5577832,1.539685 0.9966148,4.115162 -2.0439871,-5.368076 1.1566062,5.318873 3.2005934,10.68695 3.5778082,12.181991 3.3907195,15.923765 -0.1870887,3.741772 0.3237053,2.914502 -0.3741774,4.397336 -0.6978827,1.482836 -2.2369335,4.970914 -2.7625725,7.290519 -0.5256387,2.319608 -0.8974066,0.892098 -0.8974066,3.802479 0,2.91039 -1.5001579,2.60252 0,7.21342 1.5001578,4.61091 0.4023138,1.4907 2.0614237,7.05197 1.6591103,5.56127 2.3670533,19.1676 2.3670533,19.1676 0,0 -0.9759122,2.6387 -1.5371784,5.99705 -0.5612659,3.35834 0.00748,-2.06637 -1.3055782,5.4439 -1.3130578,7.51027 -0.4911421,11.62788 -0.12417,13.21094 0.3669718,1.58306 1.3040023,3.79976 1.8553567,5.04669 0.5513544,1.24693 1.985933,3.87811 2.338917,4.72634 0.352983,0.84822 1.791205,4.00574 1.791205,4.00574 l -0.824999,2.25149 -6.0307893,-1.60385 -2.4962016,-2.27136 -1.6652651,1.17938 z"
       id="path4307" />
    <path
       style="fill:#ffffff;stroke:#000000;stroke-width:0.264583"
       id="path4367"
       sodipodi:type="arc"
       sodipodi:cx="-8.6356745"
       sodipodi:cy="9.035243"
       sodipodi:rx="1.3335706"
       sodipodi:ry="1.3007823"
       sodipodi:start="2.2874015"
       sodipodi:end="5.746914"
       sodipodi:arc-type="slice"
       d="M -9.5116018,10.016085 A 1.3335706,1.3007823 0 0 1 -9.9100846,8.6521037 1.3335706,1.3007823 0 0 1 -8.7935261,7.7436054 1.3335706,1.3007823 0 0 1 -7.4893108,8.3706287 L -8.6356745,9.035243 Z"
       transform="rotate(-90)" />
    <path
       style="fill:url(#linearGradient4560);fill-opacity:1;stroke:#00ff00;stroke-width:0.242844"
       id="path4536"
       sodipodi:type="arc"
       sodipodi:cx="-8.9216967"
       sodipodi:cy="8.7361889"
       sodipodi:rx="0.50975198"
       sodipodi:ry="0.50526327"
       sodipodi:start="2.2874015"
       sodipodi:end="5.746914"
       sodipodi:arc-type="slice"
       d="m -9.2565164,9.1171775 a 0.50975198,0.50526327 0 0 1 -0.1523184,-0.5298115 0.50975198,0.50526327 0 0 1 0.4268,-0.3528883 0.50975198,0.50526327 0 0 1 0.498531,0.2435549 l -0.4381929,0.2581563 z"
       transform="rotate(-90)" />
    <path
       style="fill:#000000;stroke:#000000;stroke-width:0.0952537"
       id="path4552"
       sodipodi:type="arc"
       sodipodi:cx="-9.0333586"
       sodipodi:cy="8.6125975"
       sodipodi:rx="0.20279758"
       sodipodi:ry="0.19539946"
       sodipodi:start="2.2874015"
       sodipodi:end="5.746914"
       sodipodi:arc-type="slice"
       d="m -9.1665618,8.7599365 a 0.20279758,0.19539946 0 0 1 -0.060598,-0.204893 0.20279758,0.19539946 0 0 1 0.1697963,-0.1364718 0.20279758,0.19539946 0 0 1 0.1983334,0.09419 l -0.1743288,0.099836 z"
       transform="rotate(-90)" />
  </g>
</svg>
