<?xml version="1.0" encoding="UTF-8" standalone="no"?>
<!-- Created with Inkscape (http://www.inkscape.org/) -->

<svg
   width="16.218443mm"
   height="176.2541mm"
   viewBox="0 0 16.218442 176.2541"
   version="1.1"
   id="svg3940"
   inkscape:version="1.2.2 (b0a8486541, 2022-12-01)"
   sodipodi:docname="pipe1.svg"
   xmlns:inkscape="http://www.inkscape.org/namespaces/inkscape"
   xmlns:sodipodi="http://sodipodi.sourceforge.net/DTD/sodipodi-0.dtd"
   xmlns:xlink="http://www.w3.org/1999/xlink"
   xmlns="http://www.w3.org/2000/svg"
   xmlns:svg="http://www.w3.org/2000/svg">
  <sodipodi:namedview
     id="namedview3942"
     pagecolor="#ffffff"
     bordercolor="#000000"
     borderopacity="0.25"
     inkscape:showpageshadow="2"
     inkscape:pageopacity="0.0"
     inkscape:pagecheckerboard="0"
     inkscape:deskcolor="#d1d1d1"
     inkscape:document-units="mm"
     showgrid="false"
     inkscape:zoom="0.5"
     inkscape:cx="-176"
     inkscape:cy="323"
     inkscape:window-width="1440"
     inkscape:window-height="828"
     inkscape:window-x="0"
     inkscape:window-y="0"
     inkscape:window-maximized="1"
     inkscape:current-layer="layer1" />
  <defs
     id="defs3937">
    <linearGradient
       inkscape:collect="always"
       id="linearGradient4637">
      <stop
         style="stop-color:#00ff00;stop-opacity:1;"
         offset="0"
         id="stop4633" />
      <stop
         style="stop-color:#ffff00;stop-opacity:1"
         offset="1"
         id="stop4635" />
    </linearGradient>
    <linearGradient
       inkscape:collect="always"
       xlink:href="#linearGradient4637"
       id="linearGradient4639"
       x1="6.8518939"
       y1="91.351601"
       x2="9.6006613"
       y2="13.752307"
       gradientUnits="userSpaceOnUse" />
  </defs>
  <g
     inkscape:label="Layer 1"
     inkscape:groupmode="layer"
     id="layer1"
     transform="translate(-1.4743644,-2.2845846)">
    <path
       style="fill:url(#linearGradient4639);fill-opacity:1;stroke:#000000;stroke-width:0.264583"
       d="m 3.48347,6.2782461 1.739888,-1.7377 c 0,0 1.094907,-1.27471 2.000666,-1.59087 0.90576,-0.31615 3.262964,-0.5328 3.761863,-0.5328 0.498898,0 2.579283,0.70728 2.579283,0.70728 0,0 1.935806,1.00578 2.173104,1.15447 0.237298,0.14869 1.434699,1.4094 1.434699,1.4094 0,0 0.387543,1.58361 0.387543,1.9846 0,0.40099 -0.04876,1.87561 -0.353338,2.4645199 -0.304578,0.58891 -1.523041,2.8584 -1.56846,3.13986 -0.04542,0.28147 -1.916785,2.32205 -2.262478,3.40415 -0.345693,1.0821 -2.459661,13.01134 -2.459661,13.01134 0,0 -0.713013,1.80224 -0.338836,4.32051 0.374178,2.51828 -0.190583,2.86653 0.931949,5.95384 1.122533,3.08731 1.064033,3.189 1.859468,5.28495 0.795435,2.09595 0.982558,2.67859 1.356735,3.95563 0.374178,1.27705 1.027116,3.00397 1.027116,5.99863 0,2.99465 -0.186393,5.49462 -0.368971,7.1374 -0.182578,1.64279 -1.965082,4.999 -2.667954,6.72017 -0.702873,1.72116 -1.279715,2.09448 -1.873513,3.81144 -0.593799,1.71696 -1.159839,3.60284 -1.159839,3.60284 l 0.100168,9.691939 c 0,0 0.775109,2.08246 1.686459,3.36378 0.911349,1.28132 1.706773,0.84417 2.457605,3.20124 0.750833,2.35707 1.502636,-1.98838 0.937921,3.68821 -0.564714,5.676585 -0.378653,6.837315 -0.564714,8.029945 -0.186061,1.19264 -0.60974,4.85046 -0.983917,6.29648 -0.374177,1.44602 -0.376164,1.64734 -0.935443,4.06239 -0.559279,2.41506 0.388839,0.59132 -0.746368,3.44621 -1.135207,2.8549 -1.131553,1.7246 -1.509385,3.90861 -0.377831,2.18402 -0.939097,2.40178 -1.126186,5.95646 -0.187088,3.55469 0.09083,4.30896 0.557784,6.37352 0.466956,2.06457 -1.343947,1.63343 1.185861,3.22028 2.529808,1.58684 1.9847,-0.0444 2.529808,1.7651 0.545108,1.8095 0.915791,2.55437 0.915791,2.55437 l 1.74425,7.30459 -1.167157,7.39718 -0.78139,4.74729 -0.407897,3.50251 -0.670706,1.71334 1.760534,4.68558 0.900067,3.12516 -1.877315,2.63363 c 0,0 -1.417862,1.77973 -2.708652,1.11083 C 9.689061,177.58766 7.85878,177.35381 7.18989,175.87477 6.521,174.39573 6.155741,175.22085 5.778069,172.91157 5.400398,170.60229 5.02815,171.09058 5.02815,169.38255 c 0,-1.70804 -0.84239,-0.78509 0.749246,-2.95794 1.591635,-2.17285 1.45471,-1.34253 1.948444,-2.75369 0.493734,-1.41117 0.678505,-0.45644 0.678505,-5.03447 0,-4.57804 0,-4.67093 0,-6.66943 0,-1.99851 0.19072,-1.52904 -0.748355,-4.61775 -0.939074,-3.08871 -0.751986,-2.43457 -1.313252,-4.49946 -0.561266,-2.06489 -0.364539,-0.60432 -0.929208,-3.22697 -0.564669,-2.62264 -0.419831,-1.25605 -0.794008,-3.78868 -0.374177,-2.53263 -0.56476,-3.06265 -0.751849,-4.6935 -0.187089,-1.63085 0.282769,-12.13544 0.282769,-12.13544 0,0 -0.438832,2.57548 0.557783,-1.53968 0.996615,-4.11516 -2.043987,5.36807 1.156606,-5.31887 C 9.065424,101.45972 9.442639,99.964675 9.25555,96.222895 9.068462,92.481125 9.579256,93.308395 8.881373,91.825565 8.18349,90.342725 6.64444,86.854645 6.1188,84.535045 c -0.525638,-2.31961 -0.897406,-0.8921 -0.897406,-3.80248 0,-2.910389 -1.500158,-2.602519 0,-7.213419 1.500158,-4.61091 0.402314,-1.4907 2.061424,-7.05197 1.65911,-5.56127 2.367053,-19.1676 2.367053,-19.1676 0,0 -0.975912,-2.6387 -1.537179,-5.99705 -0.561265,-3.35834 0.0075,2.06637 -1.305578,-5.4439 -1.313058,-7.51027 -0.491142,-11.62788 -0.12417,-13.21094 0.366972,-1.58306 1.304003,-3.79976 1.855357,-5.04669 0.551354,-1.24693 1.985933,-3.87811 2.338917,-4.72634 0.352983,-0.84822 1.791205,-4.0057399 1.791205,-4.0057399 L 11.843424,6.6174261 5.812635,8.2212761 3.316433,10.492636 1.651168,9.3132561 Z"
       id="path4307" />
    <path
       style="fill:#ffffff;stroke:#000000;stroke-width:0.264583"
       id="path4367"
       sodipodi:type="arc"
       sodipodi:cx="172.87387"
       sodipodi:cy="9.3387089"
       sodipodi:rx="1.3335706"
       sodipodi:ry="1.3007823"
       sodipodi:start="2.2874015"
       sodipodi:end="5.746914"
       sodipodi:arc-type="slice"
       d="m 171.99794,10.319551 a 1.3335706,1.3007823 0 0 1 -0.39848,-1.3639814 1.3335706,1.3007823 0 0 1 1.11656,-0.9084983 1.3335706,1.3007823 0 0 1 1.30421,0.6270233 l -1.14636,0.6646143 z"
       transform="matrix(0,1,1,0,0,0)" />
    <path
       style="fill:#ffff00;fill-opacity:1;stroke:#ffff00;stroke-width:0.242844"
       id="path4536"
       sodipodi:type="arc"
       sodipodi:cx="172.58786"
       sodipodi:cy="9.0396519"
       sodipodi:rx="0.50975198"
       sodipodi:ry="0.50526327"
       sodipodi:start="2.2874015"
       sodipodi:end="5.746914"
       sodipodi:arc-type="slice"
       d="m 172.25304,9.4206405 a 0.50975198,0.50526327 0 0 1 -0.15232,-0.5298116 0.50975198,0.50526327 0 0 1 0.4268,-0.3528882 0.50975198,0.50526327 0 0 1 0.49853,0.2435548 l -0.43819,0.2581564 z"
       transform="matrix(0,1,1,0,0,0)" />
    <path
       style="fill:#000000;stroke:#000000;stroke-width:0.0952537"
       id="path4552"
       sodipodi:type="arc"
       sodipodi:cx="172.4762"
       sodipodi:cy="8.9160633"
       sodipodi:rx="0.20279758"
       sodipodi:ry="0.19539946"
       sodipodi:start="2.2874015"
       sodipodi:end="5.746914"
       sodipodi:arc-type="slice"
       d="m 172.34299,9.0634023 a 0.20279758,0.19539946 0 0 1 -0.0606,-0.204893 0.20279758,0.19539946 0 0 1 0.16979,-0.1364718 0.20279758,0.19539946 0 0 1 0.19834,0.094189 l -0.17433,0.099836 z"
       transform="matrix(0,1,1,0,0,0)" />
  </g>
</svg>
