<?xml version="1.0" encoding="UTF-8" standalone="no"?>
<!-- Created with Inkscape (http://www.inkscape.org/) -->

<svg
   width="22.772007mm"
   height="28.636599mm"
   viewBox="0 0 22.772007 28.636599"
   version="1.1"
   id="svg5"
   inkscape:version="1.2.2 (b0a8486541, 2022-12-01)"
   sodipodi:docname="python.svg"
   xmlns:inkscape="http://www.inkscape.org/namespaces/inkscape"
   xmlns:sodipodi="http://sodipodi.sourceforge.net/DTD/sodipodi-0.dtd"
   xmlns:xlink="http://www.w3.org/1999/xlink"
   xmlns="http://www.w3.org/2000/svg"
   xmlns:svg="http://www.w3.org/2000/svg">
  <sodipodi:namedview
     id="namedview7"
     pagecolor="#ffffff"
     bordercolor="#000000"
     borderopacity="0.25"
     inkscape:showpageshadow="2"
     inkscape:pageopacity="0.0"
     inkscape:pagecheckerboard="0"
     inkscape:deskcolor="#d1d1d1"
     inkscape:document-units="mm"
     showgrid="false"
     inkscape:zoom="2.3794143"
     inkscape:cx="9.6662443"
     inkscape:cy="34.672398"
     inkscape:window-width="1440"
     inkscape:window-height="828"
     inkscape:window-x="0"
     inkscape:window-y="0"
     inkscape:window-maximized="1"
     inkscape:current-layer="layer1" />
  <defs
     id="defs2">
    <linearGradient
       inkscape:collect="always"
       xlink:href="#linearGradient782"
       id="linearGradient784"
       x1="112.38327"
       y1="173.04428"
       x2="123.76688"
       y2="165.69313"
       gradientUnits="userSpaceOnUse"
       gradientTransform="matrix(0.51714396,0,0,0.51714396,-35.362184,-82.152505)" />
    <linearGradient
       inkscape:collect="always"
       id="linearGradient782">
      <stop
         style="stop-color:#00ffff;stop-opacity:1;"
         offset="0"
         id="stop778" />
      <stop
         style="stop-color:#00ff00;stop-opacity:1"
         offset="1"
         id="stop780" />
    </linearGradient>
    <linearGradient
       inkscape:collect="always"
       xlink:href="#linearGradient433"
       id="linearGradient435"
       x1="111.43035"
       y1="214.4041"
       x2="93.281189"
       y2="224.70544"
       gradientUnits="userSpaceOnUse"
       spreadMethod="pad"
       gradientTransform="matrix(0.51714396,0,0,0.51714396,-33.901165,-80.695068)" />
    <linearGradient
       inkscape:collect="always"
       id="linearGradient433">
      <stop
         style="stop-color:#ffff00;stop-opacity:1;"
         offset="0"
         id="stop429" />
      <stop
         style="stop-color:#00ff00;stop-opacity:1"
         offset="1"
         id="stop431" />
    </linearGradient>
    <linearGradient
       inkscape:collect="always"
       xlink:href="#linearGradient790"
       id="linearGradient792"
       x1="99.974327"
       y1="167.20091"
       x2="99.983345"
       y2="170.07625"
       gradientUnits="userSpaceOnUse"
       gradientTransform="matrix(0.51714396,0,0,0.51714396,-33.901165,-80.695068)" />
    <linearGradient
       inkscape:collect="always"
       id="linearGradient790">
      <stop
         style="stop-color:#00ff00;stop-opacity:1;"
         offset="0"
         id="stop786" />
      <stop
         style="stop-color:#00ffff;stop-opacity:1"
         offset="1"
         id="stop788" />
    </linearGradient>
  </defs>
  <g
     inkscape:label="Layer 1"
     inkscape:groupmode="layer"
     id="layer1"
     transform="translate(-5.1034423,-2.9964924)">
    <path
       style="fill:url(#linearGradient784);fill-opacity:1;stroke:#000000;stroke-width:0.237;stroke-dasharray:none"
       d="m 22.582758,6.9323382 0.302581,0.229525 c 0,0 0.28035,0.20968 0.392404,0.250349 0.112052,0.04065 0.225076,0.168496 0.469551,0.168496 0.24448,0 0.33814,2.74e-4 0.539474,2.74e-4 0.201335,0 0.73736,-0.03714 0.73736,-0.03714 0,0 0.217174,-0.194384 0.316843,-0.253824 0.09966,-0.05945 0.584011,-0.128135 0.584011,-0.128135 l 0.451643,-0.128331 c 0,0 0.189595,-0.179909 0.2469,-0.242908 0.05731,-0.06301 0.248735,-0.365921 0.282516,-0.429415 0.03377,-0.06349 0.02275,-0.198123 0.02275,-0.198123 l 0.200508,0.465921 0.479423,-0.296206 -0.251875,0.559923 c 0,0 -0.195289,0.242261 -0.330078,0.376977 -0.134788,0.134717 -0.625951,0.352595 -0.777356,0.449217 -0.151399,0.09662 0.124912,0.144671 -0.447379,0.27315 -0.572288,0.128487 -0.595788,0.114102 -0.883408,0.128487 -0.28762,0.01437 -0.689229,0.0271 -0.756854,0 -0.06763,-0.0271 -0.421974,-0.09486 -0.52098,-0.160604 -0.09901,-0.06574 -0.447878,-0.214511 -0.58427,-0.299752 -0.136386,-0.08524 -0.299338,-0.170032 -0.413157,-0.227352 -0.113829,-0.05732 -0.24086,-0.140544 -0.24086,-0.140544 z"
       id="path776" />
    <path
       style="fill:url(#linearGradient435);fill-opacity:1;stroke:#000000;stroke-width:0.837;stroke-dasharray:none"
       d="m 5.5312752,27.794947 c 0,0 -0.095467,0.115382 0.329143,0.723991 0.4246101,0.608605 0.7097391,1.061268 0.8667101,1.160512 0.15697,0.09923 0.502146,0.347537 0.962431,0.460636 0.460282,0.113109 0.209236,0.01071 1.007314,0.171174 0.798079,0.160413 1.9021727,0.528583 2.4162277,0.586111 0.514056,0.05753 0.885299,0.210002 1.492968,0.180716 0.607667,-0.02927 2.135886,0.158799 2.322419,0.132094 0.186534,-0.02668 1.321899,-0.166558 1.551995,-0.453484 0.230098,-0.286927 0.75397,-0.885154 0.869428,-1.018659 0.11546,-0.133507 1.073401,-2.127117 1.073401,-2.127117 0,0 0.214433,-0.338337 0.304313,-1.271837 0.08988,-0.933502 -0.124454,-1.776789 -0.124454,-1.776789 0,0 -0.221229,-1.136915 -0.336277,-1.755962 -0.115043,-0.619047 -0.547326,-1.32132 -0.861183,-1.837449 -0.313857,-0.516125 -0.878928,-1.172567 -1.081313,-1.381033 -0.202385,-0.208472 -4.31752,-4.523386 -4.31752,-4.523386 0,0 -1.167614,-1.753931 -1.138325,-2.006787 0.02929,-0.252853 0.02929,-1.457293 0.02929,-1.726957 0,-0.269659 0.108631,-1.258019 0.166163,-1.6003328 0.05753,-0.342307 0.431273,-0.945178 0.431273,-0.945178 0,0 2.145633,-0.02824 2.489996,-0.05701 0.344362,-0.02876 3.685954,-0.325284 3.950595,-0.296153 0.264643,0.02911 3.529389,-0.172535 3.529389,-0.172535 l 0.957989,0.809371 2.258967,-2.299454 0.008,-1.280073 -2.668391,-2.0251819 c 0,0 -4.580249,1.5530501 -4.784387,1.5797253 -0.204135,0.026682 -4.44939,0.9755506 -4.796649,1.1481226 -0.347305,0.172576 -2.047513,0.964996 -2.12191,1.088629 -0.07439,0.123632 -0.9112167,1.103218 -1.0550277,1.595353 -0.14381,0.492135 -0.381514,1.6533978 -0.410277,2.0562738 -0.02877,0.40288 0.225462,2.384017 0.411585,2.743325 0.186122,0.3593 0.09043,0.874665 0.366286,1.512443 0.275855,0.637774 0.6565487,1.750858 0.6565487,1.750858 0,0 1.616038,1.578806 1.724485,1.77427 0.108455,0.195465 0.524386,1.59344 0.688776,1.622204 0.164389,0.02876 0.383591,0.482721 0.767418,1.069649 0.383826,0.586923 0.760829,1.640366 1.093009,1.971767 0.332179,0.331406 0.856923,1.323553 0.856923,1.323553 0,0 0.347713,0.835223 0.403333,1.085169 0.05562,0.249946 0.0771,0.96694 0.105848,1.300794 0.02877,0.333857 0.144322,1.458309 0.144322,1.458309 0,0 -0.847065,0.715572 -1.103878,0.856267 -0.25676,0.140689 -1.644197,0.26516 -2.09624,0.227424 C 12.419944,29.59056 10.738284,29.59847 10.186228,29.474979 9.6341733,29.351494 9.3368783,29.334004 9.0155403,29.193713 8.6942033,29.053422 7.7465513,28.121239 7.7465513,28.121239 L 6.9006523,27.52373 Z"
       id="path359" />
    <path
       style="fill:#ffffff;stroke:#000000;stroke-width:0.238307;stroke-linecap:square;stroke-linejoin:miter;stroke-dasharray:none;paint-order:normal"
       id="path553-6"
       sodipodi:type="arc"
       sodipodi:cx="21.656708"
       sodipodi:cy="6.2601385"
       sodipodi:rx="1.2033592"
       sodipodi:ry="1.1672544"
       sodipodi:start="0.31447637"
       sodipodi:end="3.531405"
       sodipodi:arc-type="slice"
       d="M 22.801052,6.621192 A 1.2033592,1.1672544 0 0 1 21.876891,7.4076871 1.2033592,1.1672544 0 0 1 20.722901,6.9963642 1.2033592,1.1672544 0 0 1 20.543624,5.8165645 l 1.113084,0.443574 z" />
    <path
       style="fill:url(#linearGradient792);fill-opacity:1;stroke-width:0.136827"
       id="path640"
       sodipodi:type="arc"
       sodipodi:cx="21.497066"
       sodipodi:cy="6.7228913"
       sodipodi:rx="0.47383881"
       sodipodi:ry="0.51408988"
       sodipodi:start="0"
       sodipodi:end="4.2168191"
       sodipodi:open="true"
       sodipodi:arc-type="arc"
       d="M 21.970905,6.7228913 A 0.47383881,0.51408988 0 0 1 21.574984,7.229983 0.47383881,0.51408988 0 0 1 21.048853,6.8896633 0.47383881,0.51408988 0 0 1 21.27174,6.2706476" />
    <path
       style="fill:#000000;stroke-width:0.136827"
       id="path642"
       sodipodi:type="arc"
       sodipodi:cx="21.470295"
       sodipodi:cy="6.8402524"
       sodipodi:rx="0.17880315"
       sodipodi:ry="0.20499079"
       sodipodi:start="0"
       sodipodi:end="4.2168191"
       sodipodi:open="true"
       sodipodi:arc-type="arc"
       d="M 21.649098,6.8402524 A 0.17880315,0.20499079 0 0 1 21.499697,7.0424527 0.17880315,0.20499079 0 0 1 21.301162,6.9067519 0.17880315,0.20499079 0 0 1 21.385268,6.6599224" />
  </g>
</svg>
